<?xml version="1.0" encoding="UTF-8" standalone="no"?>
<svg width="87px" height="10px" viewBox="0 0 87 10" version="1.1" xmlns="http://www.w3.org/2000/svg" xmlns:xlink="http://www.w3.org/1999/xlink" preserveAspectRatio="none">
    <!-- Generator: Sketch 3.8.3 (29802) - http://www.bohemiancoding.com/sketch -->
    <title>SECTOR 2</title>
    <desc>Created with Sketch.</desc>
    <defs></defs>
    <g id="Page-1" stroke="none" stroke-width="1" fill="none" fill-rule="evenodd">
        <path d="M0.936,6.456 L0.936,6.744 L0.936,6.864 C0.936,7.968 1.056,8.28 1.608,8.628 C1.932,8.832 2.388,8.964 2.94,9 C3.6,9.048 4.332,9.084 5.208,9.084 C6.468,9.084 7.98,9.012 8.832,8.94 C10.356,8.784 10.92,8.124 10.92,6.444 C10.92,5.568 10.692,4.956 10.248,4.572 C9.804,4.2 9.264,4.092 7.956,4.092 C7.452,4.092 6.924,4.08 6.36,4.08 L4.728,4.056 C3.504,4.032 3.324,3.948 3.324,3.36 C3.324,2.94 3.588,2.76 4.224,2.736 L4.86,2.7 C5.376,2.676 5.796,2.664 6.12,2.664 C8.004,2.664 8.16,2.724 8.196,3.444 L10.584,3.444 C10.572,3.336 10.572,3.228 10.572,3.144 C10.572,2.844 10.548,2.592 10.5,2.376 C10.404,1.992 10.164,1.644 9.828,1.392 C9.372,1.056 8.916,0.96 7.656,0.948 L5.952,0.924 L5.76,0.924 C5.016,0.924 3.636,0.996 2.916,1.068 C1.392,1.224 0.876,1.86 0.876,3.576 C0.876,5.088 1.44,5.712 2.928,5.808 C3.24,5.832 3.576,5.844 3.936,5.856 C4.296,5.868 4.86,5.868 5.64,5.88 C6.228,5.88 6.648,5.892 6.924,5.892 C8.22,5.892 8.46,6 8.46,6.636 C8.46,6.876 8.364,7.068 8.208,7.152 C7.98,7.284 7.2,7.344 5.856,7.344 C5.244,7.344 4.404,7.32 4.092,7.308 C3.528,7.272 3.336,7.104 3.348,6.624 L3.348,6.588 C3.348,6.552 3.336,6.516 3.336,6.456 L0.936,6.456 Z M13.328,9 L22.256,9 L22.256,7.188 L15.776,7.188 L15.776,5.772 L21.824,5.772 L21.824,4.188 L15.776,4.188 L15.776,2.82 L22.256,2.82 L22.256,1.008 L13.328,1.008 L13.328,9 Z M32.224,5.952 C32.224,6.984 32.044,7.104 30.472,7.116 L29.632,7.128 L28.684,7.104 C27.808,7.092 27.508,7.032 27.268,6.828 C26.92,6.552 26.848,6.252 26.848,4.968 C26.848,3.864 26.92,3.492 27.148,3.24 C27.352,3.012 27.796,2.904 28.456,2.892 L29.68,2.88 L30.184,2.88 C31.936,2.88 32.152,2.976 32.176,3.732 L32.176,3.816 L34.528,3.816 L34.528,3.456 C34.504,2.4 34.24,1.788 33.664,1.392 C33.4,1.212 33.04,1.092 32.596,1.032 C31.984,0.972 30.808,0.924 29.5,0.924 C27.916,0.924 26.98,0.984 26.344,1.116 C25.9,1.2 25.504,1.404 25.18,1.704 C24.568,2.28 24.4,2.904 24.4,4.656 C24.4,6.84 24.568,7.692 25.144,8.328 C25.66,8.892 26.236,9.012 28.264,9.048 L29.776,9.072 L29.92,9.072 C31.192,9.072 32.344,9.012 32.968,8.928 C34.18,8.736 34.636,8.064 34.636,6.468 C34.636,6.336 34.624,6.228 34.612,5.952 L32.224,5.952 Z M42.348,3 L45.912,3 L45.912,1.008 L36.336,1.008 L36.336,3 L39.912,3 L39.912,9 L42.348,9 L42.348,3 Z M52.904,7.128 L52.628,7.128 C51.2,7.128 50.684,7.056 50.42,6.828 C50.144,6.588 50.048,6.072 50.048,4.764 C50.048,3.456 50.3,3.048 51.14,2.952 C51.512,2.904 52.388,2.88 53.876,2.88 C54.404,2.88 54.608,2.892 55.004,2.928 C55.904,3.012 56.108,3.36 56.108,4.824 C56.108,5.904 56.048,6.396 55.88,6.636 C55.64,6.972 55.124,7.104 53.984,7.116 L52.904,7.128 Z M52.904,0.924 L51.188,0.948 C50.6,0.96 50.096,0.996 49.688,1.044 C48.416,1.212 47.804,1.896 47.648,3.3 L47.6,4.896 C47.588,5.076 47.588,5.268 47.588,5.448 C47.588,7.2 47.792,7.872 48.524,8.448 C48.872,8.724 49.364,8.904 49.964,8.976 C50.576,9.036 51.56,9.084 52.58,9.084 C52.7,9.084 52.82,9.072 52.952,9.072 L54.788,9.036 C56.66,9 57.5,8.724 58.052,7.98 C58.496,7.392 58.568,6.948 58.568,4.716 C58.568,3.036 58.424,2.388 57.92,1.752 C57.392,1.104 56.816,0.948 54.86,0.936 L52.904,0.924 Z M63.424,5.004 L63.424,2.952 L67.288,2.952 C68.488,2.952 68.656,3.072 68.656,4.032 C68.656,4.824 68.428,5.016 67.492,5.016 L67.408,5.016 C67.228,5.004 67.12,5.004 67.108,5.004 L63.424,5.004 Z M60.976,9 L63.424,9 L63.424,6.948 L67.48,6.948 C68.368,6.948 68.536,7.152 68.536,8.244 L68.536,9 L71.008,9 L71.008,7.812 L71.008,7.56 C71.008,6.492 70.732,6.156 69.664,5.988 C69.604,5.976 69.508,5.952 69.376,5.928 C69.52,5.892 69.628,5.856 69.712,5.832 C70.324,5.652 70.576,5.496 70.768,5.172 C71.008,4.8 71.104,4.308 71.104,3.552 C71.104,1.68 70.396,1.008 68.428,1.008 L60.976,1.008 L60.976,9 Z M86.828,7.38 L79.64,7.38 L79.64,7.2 L79.64,7.092 C79.64,6.516 79.832,6.372 80.648,6.312 L82.328,6.204 L84.296,6.06 C85.64,5.964 86.144,5.76 86.528,5.136 C86.744,4.776 86.828,4.272 86.828,3.42 C86.828,2.436 86.66,1.872 86.264,1.512 C85.976,1.26 85.52,1.08 84.944,1.032 C84.392,0.972 83.96,0.96 82.796,0.96 C81.476,0.96 80.648,0.984 79.58,1.068 C78.572,1.14 78.092,1.32 77.768,1.752 C77.528,2.064 77.444,2.472 77.444,3.348 L77.456,3.912 L79.664,3.912 L79.664,3.72 C79.664,3.192 79.712,3.036 79.952,2.856 C80.24,2.64 80.588,2.604 82.256,2.604 C83.816,2.604 84.056,2.628 84.284,2.748 C84.476,2.844 84.56,3.108 84.56,3.54 C84.56,3.876 84.488,4.068 84.296,4.188 C84.068,4.356 83.72,4.392 81.476,4.548 C80.444,4.62 79.832,4.668 79.628,4.692 C78.848,4.764 78.476,4.872 78.092,5.148 C77.612,5.484 77.444,5.94 77.444,6.972 L77.444,9 L86.828,9 L86.828,7.38 Z" id="SECTOR-2" fill="#FFFFFF"></path>
    </g>
</svg>